<svg xmlns="http://www.w3.org/2000/svg" width="520" height="360" viewBox="0 0 520 360"><g fill="none" stroke-linecap="round" stroke-linejoin="round" opacity=".85"><path d="M88 78c23-28 62-25 77 4 17 35-16 70-52 55-27-11-39-36-25-59z" stroke="#ff8f70" stroke-width="10"/><path d="M126 89c14 12 19 25 15 42" stroke="#ff8f70" stroke-width="8"/><path d="M373 87c14-35 67-34 81 2 12 32-11 68-47 66-34-3-49-35-34-68z" stroke="#72b99a" stroke-width="10"/><path d="M398 101l38 40" stroke="#72b99a" stroke-width="8"/><path d="M97 264c31-38 93-23 97 28" stroke="#ffd66b" stroke-width="11"/><path d="M320 250c24-24 68-22 91 4" stroke="#cbe9ff" stroke-width="11"/></g></svg>