<svg xmlns="http://www.w3.org/2000/svg" viewBox="0 0 920 760" role="img" aria-label="Dečija safari ilustracija sa slonom, žirafom i lavom">
  <defs><linearGradient id="sky" x1="0" y1="0" x2="1" y2="1"><stop stop-color="#cbe9ff"/><stop offset="1" stop-color="#fff8ec"/></linearGradient><filter id="shadow"><feDropShadow dx="0" dy="18" stdDeviation="18" flood-color="#6b513a" flood-opacity=".18"/></filter></defs>
  <rect width="920" height="760" rx="64" fill="url(#sky)"/>
  <circle cx="735" cy="116" r="62" fill="#ffd66b" opacity=".85"/>
  <path d="M49 613C185 522 294 571 407 616c135 54 273 48 462-43v187H49z" fill="#bdebd7"/>
  <path d="M0 665c138-61 273-35 391 6 155 54 314 54 529-21v110H0z" fill="#72b99a" opacity=".78"/>
  <g filter="url(#shadow)">
    <g transform="translate(88 340)"><ellipse cx="170" cy="155" rx="142" ry="103" fill="#b7c8d6"/><circle cx="91" cy="101" r="74" fill="#c8d6df"/><path d="M42 143c-40 31-35 87 11 88 49 1 78-47 72-95" fill="none" stroke="#9eb4c4" stroke-width="34" stroke-linecap="round"/><circle cx="72" cy="84" r="8" fill="#31424b"/><path d="M124 55c-3-64 86-57 74 6" fill="#c8d6df"/><path d="M99 205h45v77H99zM205 205h45v77h-45z" fill="#91a9ba"/><circle cx="270" cy="105" r="18" fill="#ff8f70" opacity=".55"/></g>
    <g transform="translate(474 116)"><path d="M107 460h42V216h-42zM209 460h42V216h-42z" fill="#d99952"/><path d="M133 74h97c44 0 80 36 80 80v139c0 44-36 80-80 80h-97c-44 0-80-36-80-80V154c0-44 36-80 80-80z" fill="#f2b861"/><path d="M122 77V16M228 77V12" stroke="#8b6139" stroke-width="17" stroke-linecap="round"/><circle cx="118" cy="18" r="15" fill="#8b6139"/><circle cx="229" cy="15" r="15" fill="#8b6139"/><circle cx="126" cy="158" r="10" fill="#31424b"/><circle cx="227" cy="158" r="10" fill="#31424b"/><path d="M158 199c23 20 49 20 72 0" stroke="#8b6139" stroke-width="9" fill="none" stroke-linecap="round"/><g fill="#8b6139" opacity=".38"><circle cx="91" cy="133" r="22"/><circle cx="269" cy="132" r="20"/><circle cx="148" cy="265" r="25"/><circle cx="229" cy="311" r="23"/><circle cx="101" cy="336" r="19"/></g></g>
    <g transform="translate(630 398)"><circle cx="112" cy="111" r="91" fill="#d9904a"/><circle cx="112" cy="111" r="65" fill="#f0ba65"/><circle cx="84" cy="102" r="7" fill="#31424b"/><circle cx="140" cy="102" r="7" fill="#31424b"/><path d="M98 137c13 11 27 11 40 0" stroke="#7c4e2d" stroke-width="8" fill="none" stroke-linecap="round"/><path d="M48 196h126l23 76H24z" fill="#d9904a"/><path d="M50 250h34v65H50zM145 250h34v65h-34z" fill="#b8743d"/></g>
  </g>
  <g fill="#fff" opacity=".82"><circle cx="126" cy="112" r="23"/><circle cx="151" cy="110" r="29"/><circle cx="181" cy="116" r="21"/><circle cx="656" cy="67" r="18"/><circle cx="679" cy="66" r="25"/><circle cx="708" cy="72" r="18"/></g>
</svg>